<?xml version="1.0" encoding="utf-8"?>
<!-- Generator: Adobe Illustrator 15.1.0, SVG Export Plug-In . SVG Version: 6.00 Build 0)  -->
<!DOCTYPE svg PUBLIC "-//W3C//DTD SVG 1.1//EN" "http://www.w3.org/Graphics/SVG/1.1/DTD/svg11.dtd">
<svg version="1.1" id="圖層_1" xmlns="http://www.w3.org/2000/svg" xmlns:xlink="http://www.w3.org/1999/xlink" x="0px" y="0px"
	 width="595.28px" height="841.89px" viewBox="0 0 595.28 841.89" enable-background="new 0 0 595.28 841.89" xml:space="preserve">
<g>
	<defs>
		<rect id="SVGID_1_" width="595.28" height="841.89"/>
	</defs>
	<clipPath id="SVGID_2_">
		<use xlink:href="#SVGID_1_"  overflow="visible"/>
	</clipPath>
	<path clip-path="url(#SVGID_2_)" fill="#BF1262" d="M143.851,329.952l-15.723,13.89c-5.53-7.696-11.157-11.523-16.881-11.523
		c-2.784,0-5.064,0.735-6.836,2.226c-1.764,1.495-2.66,3.18-2.66,5.05c0,1.874,0.638,3.642,1.907,5.309
		c1.721,2.224,6.91,7.003,15.584,14.341c8.097,6.772,13.013,11.047,14.726,12.807c4.297,4.357,7.358,8.511,9.163,12.473
		c1.796,3.974,2.696,8.323,2.696,13.021c0,9.15-3.172,16.721-9.496,22.676c-6.319,5.973-14.583,8.953-24.756,8.953
		c-7.94,0-14.86-1.943-20.76-5.838c-5.895-3.905-10.949-10.012-15.154-18.358l17.85-10.765c5.373,9.86,11.554,14.789,18.539,14.789
		c3.642,0,6.712-1.066,9.199-3.194c2.48-2.133,3.703-4.569,3.703-7.354c0-2.529-0.918-5.054-2.802-7.593
		c-1.879-2.525-6.001-6.393-12.385-11.591c-12.159-9.911-19.997-17.578-23.552-22.952c-3.535-5.378-5.309-10.764-5.309-16.124
		c0-7.733,2.936-14.37,8.845-19.9c5.89-5.54,13.175-8.31,21.826-8.31c5.566,0,10.866,1.283,15.916,3.868
		C132.518,318.43,137.979,323.138,143.851,329.952"/>
	<path clip-path="url(#SVGID_2_)" fill="#BF1262" d="M157.551,314.801h21.309v72.147c0,6.223,0.549,10.612,1.634,13.179
		c1.09,2.576,2.886,4.634,5.391,6.185c2.498,1.532,5.526,2.295,9.062,2.295c3.744,0,6.975-0.836,9.68-2.563
		c2.692-1.731,4.557-3.913,5.613-6.555c1.026-2.663,1.547-7.717,1.547-15.2v-69.488h21.308v66.505
		c0,11.241-0.622,19.024-1.901,23.377c-1.256,4.344-3.67,8.531-7.234,12.588c-3.574,4.044-7.663,7.039-12.321,8.979
		c-4.657,1.947-10.072,2.926-16.235,2.926c-8.087,0-15.132-1.855-21.132-5.576c-5.983-3.725-10.272-8.363-12.853-13.959
		c-2.575-5.585-3.868-15.025-3.868-28.334V314.801z"/>
	<path clip-path="url(#SVGID_2_)" fill="#BF1262" d="M249.904,314.801h22.541c12.177,0,20.961,1.112,26.353,3.365
		c5.392,2.253,9.63,5.9,12.741,10.908c3.111,5.045,4.666,11.084,4.666,18.11c0,7.778-2.045,14.25-6.111,19.42
		c-4.07,5.156-9.588,8.748-16.567,10.779c-4.099,1.154-11.559,1.712-22.371,1.712v47.275h-21.252V314.801z M271.156,358.401h6.753
		c5.295,0,8.997-0.374,11.066-1.126c2.086-0.771,3.706-2.032,4.893-3.781c1.192-1.759,1.782-3.868,1.782-6.356
		c0-4.307-1.675-7.446-5-9.441c-2.432-1.463-6.933-2.196-13.511-2.196h-5.983V358.401z"/>
	<polygon clip-path="url(#SVGID_2_)" fill="#BF1262" points="329.301,314.801 390.207,314.801 390.207,335.578 350.379,335.578 
		350.379,355.751 390.207,355.751 390.207,376.164 350.379,376.164 350.379,405.519 390.207,405.519 390.207,426.371 
		329.301,426.371 	"/>
	<path clip-path="url(#SVGID_2_)" fill="#BF1262" d="M403.672,314.801h22.496c12.324,0,21.105,1.094,26.34,3.287
		c5.221,2.207,9.426,5.858,12.611,10.959c3.195,5.105,4.768,11.147,4.768,18.137c0,7.325-1.758,13.446-5.268,18.386
		c-3.512,4.931-8.807,8.665-15.887,11.194l26.432,49.606h-23.205l-25.098-47.275h-1.949v47.275h-21.24V314.801z M424.912,358.401
		h6.656c6.754,0,11.402-0.877,13.945-2.659c2.549-1.773,3.818-4.732,3.818-8.826c0-2.437-0.615-4.557-1.879-6.357
		c-1.27-1.809-2.959-3.093-5.074-3.891c-2.117-0.78-6-1.167-11.637-1.167h-5.83V358.401z"/>
	<path clip-path="url(#SVGID_2_)" fill="#621434" d="M76.805,475.648v-37.189h5.844c3.389,0,5.876,0.205,7.442,0.66
		c2.215,0.582,3.993,1.682,5.308,3.279c1.321,1.598,1.98,3.489,1.98,5.66c0,1.426-0.291,2.695-0.9,3.863
		c-0.591,1.158-1.56,2.238-2.913,3.238c2.263,1.068,3.91,2.402,4.954,3.984c1.043,1.598,1.565,3.477,1.565,5.646
		c0,2.102-0.541,3.998-1.616,5.715c-1.085,1.732-2.479,3.016-4.178,3.869c-1.708,0.857-4.062,1.273-7.063,1.273H76.805z
		 M83.877,445.212v7.824h1.551c1.722,0,3.01-0.367,3.841-1.082c0.849-0.727,1.255-1.727,1.255-2.961c0-1.164-0.392-2.076-1.181-2.77
		c-0.803-0.678-2.008-1.012-3.643-1.012H83.877z M83.877,459.367v9.531h1.777c2.941,0,4.921-0.367,5.951-1.111
		c1.01-0.756,1.537-1.828,1.537-3.236c0-1.611-0.6-2.865-1.806-3.799c-1.204-0.928-3.199-1.385-5.982-1.385H83.877z"/>
	<path clip-path="url(#SVGID_2_)" fill="#621434" d="M145.356,437.517c5.253,0,9.786,1.902,13.571,5.711
		c3.782,3.818,5.678,8.457,5.678,13.932c0,5.434-1.865,10.018-5.603,13.789c-3.74,3.758-8.273,5.623-13.604,5.623
		c-5.582,0-10.216-1.926-13.909-5.768c-3.697-3.867-5.535-8.459-5.535-13.76c0-3.572,0.854-6.832,2.576-9.818
		c1.717-2.979,4.085-5.346,7.099-7.086C138.635,438.404,141.866,437.517,145.356,437.517 M145.273,444.457
		c-3.435,0-6.333,1.182-8.678,3.582c-2.341,2.387-3.523,5.434-3.523,9.121c0,4.104,1.473,7.367,4.436,9.764
		c2.295,1.865,4.911,2.803,7.89,2.803c3.356,0,6.221-1.195,8.581-3.639c2.358-2.422,3.545-5.406,3.545-8.973
		c0-3.547-1.187-6.543-3.563-8.998C151.57,445.671,148.685,444.457,145.273,444.457"/>
	<path clip-path="url(#SVGID_2_)" fill="#621434" d="M209.794,437.517c5.257,0,9.786,1.902,13.576,5.711
		c3.781,3.818,5.677,8.457,5.677,13.932c0,5.434-1.874,10.018-5.599,13.789c-3.744,3.758-8.268,5.623-13.609,5.623
		c-5.575,0-10.22-1.926-13.912-5.768c-3.68-3.867-5.544-8.459-5.544-13.76c0-3.572,0.867-6.832,2.585-9.818
		c1.721-2.979,4.08-5.346,7.099-7.086C203.077,438.404,206.318,437.517,209.794,437.517 M209.714,444.457
		c-3.433,0-6.337,1.182-8.683,3.582c-2.339,2.387-3.503,5.434-3.503,9.121c0,4.104,1.478,7.367,4.423,9.764
		c2.289,1.865,4.92,2.803,7.888,2.803c3.357,0,6.218-1.195,8.578-3.639c2.372-2.422,3.558-5.406,3.558-8.973
		c0-3.547-1.2-6.543-3.582-8.998C216.02,445.671,213.122,444.457,209.714,444.457"/>
	<polygon clip-path="url(#SVGID_2_)" fill="#621434" points="256.731,438.458 263.885,438.458 263.885,451.279 273.99,438.458 
		282.484,438.458 269.48,455.05 283.739,475.648 275.357,475.648 263.885,459.113 263.885,475.648 256.731,475.648 	"/>
	<path clip-path="url(#SVGID_2_)" fill="#621434" d="M343.926,444.992l-4.957,4.723c-3.354-3.559-7.156-5.338-11.357-5.338
		c-3.559,0-6.549,1.211-8.99,3.629c-2.43,2.447-3.645,5.425-3.645,9.002c0,2.475,0.551,4.678,1.613,6.605
		c1.084,1.916,2.598,3.418,4.568,4.512c1.977,1.107,4.164,1.656,6.564,1.656c2.068,0,3.943-0.373,5.641-1.15
		c1.705-0.766,3.578-2.174,5.605-4.199l4.818,5.021c-2.76,2.682-5.363,4.533-7.797,5.582c-2.441,1.02-5.23,1.537-8.369,1.537
		c-5.799,0-10.516-1.834-14.203-5.494c-3.676-3.674-5.525-8.359-5.525-14.104c0-3.691,0.84-6.984,2.523-9.887
		c1.668-2.865,4.076-5.189,7.201-6.947c3.135-1.736,6.486-2.623,10.096-2.623c3.074,0,6.025,0.648,8.863,1.936
		C339.42,440.753,341.867,442.596,343.926,444.992"/>
	<rect x="370.566" y="438.458" clip-path="url(#SVGID_2_)" fill="#621434" width="7.032" height="37.188"/>
	<polygon clip-path="url(#SVGID_2_)" fill="#621434" points="402.865,438.458 423.412,438.458 423.412,445.435 416.641,445.435 
		416.641,475.648 409.447,475.648 409.447,445.435 402.865,445.435 	"/>
	<polygon clip-path="url(#SVGID_2_)" fill="#621434" points="446.572,438.458 454.17,438.458 461.107,451.833 468.014,438.458 
		475.516,438.458 464.641,459.546 464.641,475.648 457.506,475.648 457.506,459.546 	"/>
	<path clip-path="url(#SVGID_2_)" fill="#621434" d="M488.176,321.259h8.555v-7.104h2.346v7.104h7.473v2.031h-7.473v8.531h9.869
		v2.031h-8.762v8.143h7.699v2.041h-7.699v10.243c1.865,0.96,3.869,1.662,6.047,2.128c4.223,0.826,10.367,1.21,18.404,1.21
		c3.967,0,7.418-0.125,10.369-0.384l-0.217,2.428c-3.381,0.268-6.754,0.411-10.152,0.411c-8.176,0-14.434-0.406-18.727-1.172
		c-3.49-0.678-6.531-1.948-9.131-3.813c-2.035-1.574-3.869-3.578-5.494-5.974c-0.221,0.873-0.453,1.727-0.711,2.535
		c-1.104,3.817-2.447,7.238-4.043,10.243l-1.926-1.676c1.695-3.263,3.02-6.615,3.947-10.04c0.988-3.822,1.662-7.889,1.971-12.232
		l2.355,0.35c-0.217,2.747-0.537,5.332-0.957,7.773c1.523,2.517,3.273,4.585,5.227,6.246c0.258,0.161,0.488,0.337,0.684,0.49v-18.95
		h-12.008v-2.031h10.908v-8.531h-8.555V321.259z M507.666,316.999h23.869c-0.289,8.733-0.945,13.774-1.979,15.122
		c-0.711,0.915-2.035,1.367-3.947,1.367c-1.791,0-3.914-0.48-6.416-1.464l-0.203-2.234c2.584,0.983,4.801,1.464,6.619,1.464
		c1.131,0,1.922-0.393,2.41-1.164c0.535-0.84,0.924-4.529,1.162-11.047h-9.291c-0.568,3.684-1.631,7.008-3.209,9.985
		c-1.91,3.37-4.428,6.288-7.516,8.73l-1.717-1.69c2.854-2.193,5.197-4.847,7.055-7.944c1.496-2.72,2.506-5.743,3.037-9.081h-9.875
		V316.999z M531.098,336.935v18.064h-2.346v-3.85h-15.107v4.053h-2.346v-18.267H531.098z M513.645,349.113h15.107v-10.197h-15.107
		V349.113z"/>
	<path clip-path="url(#SVGID_2_)" fill="#621434" d="M507.883,373.537v14.043h-17.361v31.446h-2.346v-45.489H507.883z
		 M490.521,379.465h15.024v-3.8h-15.024V379.465z M490.521,385.558h15.024v-4.062h-15.024V385.558z M520.689,395.285v9.952h-6.398
		v5.268c0,1.19,0.102,1.892,0.305,2.132c0.193,0.304,1.57,0.457,4.172,0.457c2.105,0,3.314-0.208,3.629-0.6
		c0.471-0.383,0.813-2.193,1.08-5.438l2.336,1.379c-0.383,3.727-0.969,5.752-1.75,6.131c-0.439,0.518-2.201,0.758-5.295,0.758
		c-3.531,0-5.516-0.268-5.969-0.813c-0.572-0.263-0.881-1.482-0.881-3.657v-5.617h-4.57c-0.326,3.37-1.408,5.844-3.25,7.4
		c-1.791,1.693-4.721,3.001-8.816,3.956l-1.496-2.027c3.736-0.822,6.398-1.929,8.004-3.36c1.645-1.206,2.637-3.208,2.988-5.969
		h-6.297v-9.952H520.689z M500.824,403.206h17.529v-5.881h-17.529V403.206z M518.354,373.537h13.451v41.431
		c0,2.035-1.293,3.043-3.855,3.043c-1.416,0-3.051-0.162-4.91-0.454v-2.233c1.75,0.451,3.383,0.664,4.91,0.664
		c1.012,0,1.506-0.609,1.506-1.833V387.58h-17.74v-14.043H518.354z M514.291,379.465h15.164v-3.8h-15.164V379.465z M529.455,381.496
		h-15.164v4.062h15.164V381.496z"/>
	<path clip-path="url(#SVGID_2_)" fill="#621434" d="M488.439,460.539l2.355,0.602c-0.842,4.439-2.207,8.955-4.053,13.561
		l-2.139-0.975C486.383,469.128,487.67,464.73,488.439,460.539 M495.004,428.632l2.363,0.813c-0.857,2.4-2.076,4.926-3.629,7.557
		c-1.223,2.117-2.482,3.969-3.785,5.633c2.512-0.201,4.982-0.494,7.414-0.861c0.891-1.586,1.676-3.174,2.35-4.771l2.396,0.766
		c-1.348,3.203-3.221,6.547-5.604,10.041c-1.838,2.885-3.795,5.414-5.816,7.607c3.41-0.311,6.453-0.629,9.117-0.961
		c-0.734-1.463-1.553-2.814-2.443-4.117l1.709-1.15c2.133,2.984,3.934,6.215,5.377,9.727l-2.34,0.771
		c-0.43-1.154-0.891-2.262-1.402-3.314c-4.465,0.646-9.428,1.229-14.889,1.73l-0.43-2.225c0.805-0.057,1.533-0.129,2.203-0.156
		c2.441-2.771,4.667-5.656,6.605-8.67c0.758-1.086,1.439-2.15,2.045-3.203c-3.379,0.512-6.855,0.863-10.424,1.07l-0.637-2.021
		c0.637-0.041,1.252-0.083,1.814-0.111c1.605-2.057,3.037-4.209,4.33-6.449C492.824,433.806,494.053,431.236,495.004,428.632
		 M495.707,460.945c0.414,3.953,0.637,8.084,0.637,12.377l-2.189,0.199c0-4.654-0.119-8.791-0.369-12.381L495.707,460.945z
		 M500.824,460.332c1.465,3.494,2.447,7.004,2.945,10.553l-2.137,0.396c-0.488-3.711-1.422-7.164-2.783-10.336L500.824,460.332z
		 M532.229,430.867v40.211c0,2.719-1.357,4.072-4.063,4.072c-1.24,0-2.658-0.162-4.273-0.449l-0.203-2.438
		c1.707,0.422,3.193,0.648,4.477,0.648c1.289,0,1.926-0.744,1.926-2.221v-37.793h-22.051v42.859h-2.133v-44.891H532.229z
		 M518.131,447.562c1.32,1.686,2.525,3.652,3.629,5.867h6.992v1.783H516v9.182c0,0.535,0.35,0.803,1.057,0.803h9.568v1.834h-9.568
		c-2.129,0-3.195-0.869-3.195-2.637v-9.182h-4.279v-1.783h9.611c-0.775-1.725-1.699-3.365-2.771-4.91L518.131,447.562z
		 M510.229,444.917h18.164v1.777h-18.164V444.917z M513.645,435.529c1.861,2.17,3.412,4.551,4.709,7.15l-1.719,1.168
		c-1.17-2.471-2.742-4.805-4.717-7.045L513.645,435.529z M524.701,435.126l2.141,0.609c-0.904,2.742-2.387,5.508-4.49,8.318
		l-1.871-0.961C522.471,440.31,523.883,437.671,524.701,435.126"/>
	<path clip-path="url(#SVGID_2_)" fill="#621434" d="M502.289,389.629l1.842,1.247c-1.703,2.322-5.461,5.723-8.332,7.74
		l-1.482-1.494C497.072,395.095,500.719,391.795,502.289,389.629"/>
	<path clip-path="url(#SVGID_2_)" fill="#621434" d="M524.217,398.101c-3.98-0.78-5.129-3.093-5.893-4.622
		c-0.258-0.512-0.479-0.955-0.729-1.209c-0.268-0.272-1.043-0.397-1.482-0.397h-0.004h-9.648v-1.74h9.648
		c0.24,0.042,1.828,0.018,2.719,0.909c0.453,0.453,0.744,1.039,1.053,1.663c0.717,1.439,1.527,3.069,4.666,3.688L524.217,398.101z"
		/>
</g>
</svg>
